G75*
%MOIN*%
%OFA0B0*%
%FSLAX24Y24*%
%IPPOS*%
%LPD*%
%AMOC8*
5,1,8,0,0,1.08239X$1,22.5*
%
%ADD10R,0.0150X0.0300*%
%ADD11R,0.0984X0.1969*%
%ADD12OC8,0.0650*%
%ADD13R,0.0650X0.0650*%
%ADD14C,0.0100*%
%ADD15C,0.0250*%
D10*
X000950Y002385D03*
X001200Y002385D03*
X001450Y002385D03*
X001700Y002385D03*
X001950Y002385D03*
X002200Y002385D03*
X002450Y002385D03*
X002700Y002385D03*
X002950Y002385D03*
X003200Y002385D03*
X003450Y002385D03*
X003700Y002385D03*
X003950Y002385D03*
X004200Y002385D03*
X004450Y002385D03*
X004700Y002385D03*
X004950Y002385D03*
X005200Y002385D03*
X005200Y002755D03*
X004950Y002755D03*
X004700Y002755D03*
X004450Y002755D03*
X004200Y002755D03*
X003950Y002755D03*
X003700Y002755D03*
X003450Y002755D03*
X003200Y002755D03*
X002950Y002755D03*
X002700Y002755D03*
X002450Y002755D03*
X002200Y002755D03*
X001950Y002755D03*
X001700Y002755D03*
X001450Y002755D03*
X001200Y002755D03*
X000950Y002755D03*
D11*
X001050Y004705D03*
X002400Y004705D03*
X003750Y004705D03*
X005100Y004705D03*
D12*
X004925Y005055D03*
X002225Y005055D03*
D13*
X001225Y005055D03*
X003925Y005055D03*
D14*
X000350Y006355D02*
X000350Y000355D01*
X005800Y000355D01*
X005800Y006355D01*
X000350Y006355D01*
X000350Y006312D02*
X005800Y006312D01*
X005800Y006214D02*
X000350Y006214D01*
X000350Y006115D02*
X005800Y006115D01*
X005800Y006017D02*
X000350Y006017D01*
X000350Y005918D02*
X005800Y005918D01*
X005800Y005820D02*
X000350Y005820D01*
X000350Y005721D02*
X000448Y005721D01*
X000448Y005735D02*
X000448Y003675D01*
X000512Y003611D01*
X000829Y003611D01*
X000390Y003171D01*
X000390Y001989D01*
X000484Y001895D01*
X000734Y001645D01*
X003216Y001645D01*
X003310Y001739D01*
X003610Y002039D01*
X003610Y002125D01*
X003821Y002125D01*
X003825Y002129D01*
X003829Y002125D01*
X004071Y002125D01*
X004075Y002129D01*
X004079Y002125D01*
X004321Y002125D01*
X004325Y002129D01*
X004329Y002125D01*
X004571Y002125D01*
X004575Y002129D01*
X004579Y002125D01*
X004821Y002125D01*
X004825Y002129D01*
X004829Y002125D01*
X005071Y002125D01*
X005135Y002189D01*
X005135Y002495D01*
X005321Y002495D01*
X005385Y002559D01*
X005385Y002951D01*
X005360Y002976D01*
X005360Y003121D01*
X005266Y003215D01*
X005166Y003315D01*
X004066Y003315D01*
X003910Y003471D01*
X003910Y003611D01*
X004288Y003611D01*
X004352Y003675D01*
X004352Y004677D01*
X004360Y004685D01*
X004360Y005425D01*
X004352Y005433D01*
X004352Y005735D01*
X004288Y005799D01*
X003212Y005799D01*
X003148Y005735D01*
X003148Y003675D01*
X003212Y003611D01*
X003590Y003611D01*
X003590Y003339D01*
X003840Y003089D01*
X003914Y003015D01*
X003829Y003015D01*
X003825Y003011D01*
X003821Y003015D01*
X003579Y003015D01*
X003575Y003011D01*
X003571Y003015D01*
X003329Y003015D01*
X003325Y003011D01*
X003321Y003015D01*
X003079Y003015D01*
X003075Y003011D01*
X003071Y003015D01*
X002829Y003015D01*
X002825Y003011D01*
X002821Y003015D01*
X002579Y003015D01*
X002575Y003011D01*
X002571Y003015D01*
X002329Y003015D01*
X002325Y003011D01*
X002321Y003015D01*
X002136Y003015D01*
X002466Y003345D01*
X002560Y003439D01*
X002560Y003611D01*
X002938Y003611D01*
X003002Y003675D01*
X003002Y005735D01*
X002938Y005799D01*
X001862Y005799D01*
X001798Y005735D01*
X001798Y005243D01*
X001790Y005235D01*
X001790Y004875D01*
X001798Y004867D01*
X001798Y003675D01*
X001862Y003611D01*
X002240Y003611D01*
X002240Y003571D01*
X001984Y003315D01*
X000986Y003315D01*
X001116Y003445D01*
X001210Y003539D01*
X001210Y003611D01*
X001588Y003611D01*
X001652Y003675D01*
X001652Y004677D01*
X001660Y004685D01*
X001660Y005425D01*
X001652Y005433D01*
X001652Y005735D01*
X001588Y005799D01*
X000512Y005799D01*
X000448Y005735D01*
X000448Y005623D02*
X000350Y005623D01*
X000350Y005524D02*
X000448Y005524D01*
X000448Y005426D02*
X000350Y005426D01*
X000350Y005327D02*
X000448Y005327D01*
X000448Y005229D02*
X000350Y005229D01*
X000350Y005130D02*
X000448Y005130D01*
X000448Y005032D02*
X000350Y005032D01*
X000350Y004933D02*
X000448Y004933D01*
X000448Y004835D02*
X000350Y004835D01*
X000350Y004736D02*
X000448Y004736D01*
X000448Y004638D02*
X000350Y004638D01*
X000350Y004539D02*
X000448Y004539D01*
X000448Y004441D02*
X000350Y004441D01*
X000350Y004342D02*
X000448Y004342D01*
X000448Y004244D02*
X000350Y004244D01*
X000350Y004145D02*
X000448Y004145D01*
X000448Y004047D02*
X000350Y004047D01*
X000350Y003948D02*
X000448Y003948D01*
X000448Y003850D02*
X000350Y003850D01*
X000350Y003751D02*
X000448Y003751D01*
X000471Y003653D02*
X000350Y003653D01*
X000350Y003554D02*
X000773Y003554D01*
X000674Y003456D02*
X000350Y003456D01*
X000350Y003357D02*
X000576Y003357D01*
X000477Y003259D02*
X000350Y003259D01*
X000350Y003160D02*
X000390Y003160D01*
X000390Y003062D02*
X000350Y003062D01*
X000350Y002963D02*
X000390Y002963D01*
X000390Y002865D02*
X000350Y002865D01*
X000350Y002766D02*
X000390Y002766D01*
X000390Y002668D02*
X000350Y002668D01*
X000350Y002569D02*
X000390Y002569D01*
X000390Y002471D02*
X000350Y002471D01*
X000350Y002372D02*
X000390Y002372D01*
X000390Y002274D02*
X000350Y002274D01*
X000350Y002175D02*
X000390Y002175D01*
X000390Y002077D02*
X000350Y002077D01*
X000350Y001978D02*
X000401Y001978D01*
X000350Y001880D02*
X000499Y001880D01*
X000598Y001781D02*
X000350Y001781D01*
X000350Y001683D02*
X000696Y001683D01*
X000800Y001805D02*
X000550Y002055D01*
X000550Y003105D01*
X001050Y003605D01*
X001050Y004705D01*
X001225Y004880D01*
X001225Y005055D01*
X001660Y005032D02*
X001790Y005032D01*
X001790Y005130D02*
X001660Y005130D01*
X001660Y005229D02*
X001790Y005229D01*
X001798Y005327D02*
X001660Y005327D01*
X001660Y005426D02*
X001798Y005426D01*
X001798Y005524D02*
X001652Y005524D01*
X001652Y005623D02*
X001798Y005623D01*
X001798Y005721D02*
X001652Y005721D01*
X002225Y005055D02*
X002225Y004880D01*
X002400Y004705D01*
X002400Y003505D01*
X002050Y003155D01*
X000950Y003155D01*
X000750Y002955D01*
X000750Y002105D01*
X000850Y002005D01*
X003000Y002005D01*
X003200Y002205D01*
X003200Y002385D01*
X003450Y002385D02*
X003450Y002105D01*
X003150Y001805D01*
X000800Y001805D01*
X000350Y001584D02*
X005800Y001584D01*
X005800Y001486D02*
X000350Y001486D01*
X000350Y001387D02*
X005800Y001387D01*
X005800Y001289D02*
X000350Y001289D01*
X000350Y001190D02*
X005800Y001190D01*
X005800Y001092D02*
X000350Y001092D01*
X000350Y000993D02*
X005800Y000993D01*
X005800Y000895D02*
X000350Y000895D01*
X000350Y000796D02*
X005800Y000796D01*
X005800Y000698D02*
X000350Y000698D01*
X000350Y000599D02*
X005800Y000599D01*
X005800Y000501D02*
X000350Y000501D01*
X000350Y000402D02*
X005800Y000402D01*
X005800Y001683D02*
X003254Y001683D01*
X003352Y001781D02*
X005800Y001781D01*
X005800Y001880D02*
X003451Y001880D01*
X003549Y001978D02*
X005800Y001978D01*
X005800Y002077D02*
X003610Y002077D01*
X003867Y003062D02*
X002183Y003062D01*
X002281Y003160D02*
X003769Y003160D01*
X003670Y003259D02*
X002380Y003259D01*
X002478Y003357D02*
X003590Y003357D01*
X003590Y003456D02*
X002560Y003456D01*
X002560Y003554D02*
X003590Y003554D01*
X003750Y003405D02*
X004000Y003155D01*
X005100Y003155D01*
X005200Y003055D01*
X005200Y002755D01*
X005385Y002766D02*
X005800Y002766D01*
X005800Y002865D02*
X005385Y002865D01*
X005373Y002963D02*
X005800Y002963D01*
X005800Y003062D02*
X005360Y003062D01*
X005321Y003160D02*
X005800Y003160D01*
X005800Y003259D02*
X005223Y003259D01*
X005100Y003455D02*
X005100Y004705D01*
X004925Y004880D01*
X004925Y005055D01*
X004360Y005032D02*
X005800Y005032D01*
X005800Y005130D02*
X004360Y005130D01*
X004360Y005229D02*
X005800Y005229D01*
X005800Y005327D02*
X004360Y005327D01*
X004360Y005426D02*
X005800Y005426D01*
X005800Y005524D02*
X004352Y005524D01*
X004352Y005623D02*
X005800Y005623D01*
X005800Y005721D02*
X004352Y005721D01*
X003925Y005055D02*
X003925Y004880D01*
X003750Y004705D01*
X003750Y003405D01*
X003926Y003456D02*
X005800Y003456D01*
X005800Y003357D02*
X004024Y003357D01*
X003910Y003554D02*
X005800Y003554D01*
X005800Y003653D02*
X004329Y003653D01*
X004352Y003751D02*
X005800Y003751D01*
X005800Y003850D02*
X004352Y003850D01*
X004352Y003948D02*
X005800Y003948D01*
X005800Y004047D02*
X004352Y004047D01*
X004352Y004145D02*
X005800Y004145D01*
X005800Y004244D02*
X004352Y004244D01*
X004352Y004342D02*
X005800Y004342D01*
X005800Y004441D02*
X004352Y004441D01*
X004352Y004539D02*
X005800Y004539D01*
X005800Y004638D02*
X004352Y004638D01*
X004360Y004736D02*
X005800Y004736D01*
X005800Y004835D02*
X004360Y004835D01*
X004360Y004933D02*
X005800Y004933D01*
X005800Y002668D02*
X005385Y002668D01*
X005385Y002569D02*
X005800Y002569D01*
X005800Y002471D02*
X005135Y002471D01*
X005135Y002372D02*
X005800Y002372D01*
X005800Y002274D02*
X005135Y002274D01*
X005121Y002175D02*
X005800Y002175D01*
X005500Y002305D02*
X005420Y002385D01*
X005200Y002385D01*
X003171Y003653D02*
X002979Y003653D01*
X003002Y003751D02*
X003148Y003751D01*
X003148Y003850D02*
X003002Y003850D01*
X003002Y003948D02*
X003148Y003948D01*
X003148Y004047D02*
X003002Y004047D01*
X003002Y004145D02*
X003148Y004145D01*
X003148Y004244D02*
X003002Y004244D01*
X003002Y004342D02*
X003148Y004342D01*
X003148Y004441D02*
X003002Y004441D01*
X003002Y004539D02*
X003148Y004539D01*
X003148Y004638D02*
X003002Y004638D01*
X003002Y004736D02*
X003148Y004736D01*
X003148Y004835D02*
X003002Y004835D01*
X003002Y004933D02*
X003148Y004933D01*
X003148Y005032D02*
X003002Y005032D01*
X003002Y005130D02*
X003148Y005130D01*
X003148Y005229D02*
X003002Y005229D01*
X003002Y005327D02*
X003148Y005327D01*
X003148Y005426D02*
X003002Y005426D01*
X003002Y005524D02*
X003148Y005524D01*
X003148Y005623D02*
X003002Y005623D01*
X003002Y005721D02*
X003148Y005721D01*
X001790Y004933D02*
X001660Y004933D01*
X001660Y004835D02*
X001798Y004835D01*
X001798Y004736D02*
X001660Y004736D01*
X001652Y004638D02*
X001798Y004638D01*
X001798Y004539D02*
X001652Y004539D01*
X001652Y004441D02*
X001798Y004441D01*
X001798Y004342D02*
X001652Y004342D01*
X001652Y004244D02*
X001798Y004244D01*
X001798Y004145D02*
X001652Y004145D01*
X001652Y004047D02*
X001798Y004047D01*
X001798Y003948D02*
X001652Y003948D01*
X001652Y003850D02*
X001798Y003850D01*
X001798Y003751D02*
X001652Y003751D01*
X001629Y003653D02*
X001821Y003653D01*
X002026Y003357D02*
X001028Y003357D01*
X001127Y003456D02*
X002124Y003456D01*
X002223Y003554D02*
X001210Y003554D01*
D15*
X001650Y003455D03*
X002550Y003155D03*
X003050Y003405D03*
X003600Y003105D03*
X004450Y003455D03*
X005575Y003280D03*
X005600Y002230D03*
X005600Y001605D03*
X004950Y001055D03*
X004600Y001405D03*
X003850Y001305D03*
X004150Y000555D03*
X004850Y000505D03*
X005650Y000555D03*
X003200Y000605D03*
X002900Y001255D03*
X002200Y000605D03*
X001900Y001455D03*
X001400Y000605D03*
X001100Y001405D03*
X000550Y001655D03*
X000550Y000605D03*
X000550Y003505D03*
X000600Y006105D03*
X001700Y006105D03*
X003075Y006080D03*
X004350Y006055D03*
X005650Y006105D03*
M02*
