%
M48
M72
T01C0.0130
T02C0.0433
%
T01
X550Y605
X1100Y1405
X550Y1655
X1400Y605
X1900Y1455
X2200Y605
X2900Y1255
X3200Y605
X3850Y1305
X4150Y555
X4850Y505
X4950Y1055
X4600Y1405
X5600Y1605
X5600Y2230
X5575Y3280
X4450Y3455
X3600Y3105
X3050Y3405
X2550Y3155
X1650Y3455
X550Y3505
X600Y6105
X1700Y6105
X3075Y6080
X4350Y6055
X5650Y6105
X5650Y555
T02
X4925Y5055
X3925Y5055
X2225Y5055
X1225Y5055
M30
