G75*
%MOIN*%
%OFA0B0*%
%FSLAX24Y24*%
%IPPOS*%
%LPD*%
%AMOC8*
5,1,8,0,0,1.08239X$1,22.5*
%
%ADD10C,0.0070*%
%ADD11R,0.0150X0.0300*%
%ADD12C,0.0050*%
D10*
X000750Y000225D02*
X000750Y001765D01*
X005400Y001765D01*
X005400Y000225D01*
X000750Y000225D01*
X001060Y000640D02*
X001060Y000970D01*
X001280Y000640D01*
X001280Y000970D01*
X001428Y000970D02*
X001593Y000970D01*
X001649Y000915D01*
X001649Y000805D01*
X001593Y000750D01*
X001428Y000750D01*
X001428Y000640D02*
X001428Y000970D01*
X001483Y001140D02*
X001428Y001195D01*
X001483Y001140D02*
X001593Y001140D01*
X001649Y001195D01*
X001649Y001250D01*
X001593Y001305D01*
X001483Y001305D01*
X001428Y001360D01*
X001428Y001415D01*
X001483Y001470D01*
X001593Y001470D01*
X001649Y001415D01*
X001797Y001305D02*
X002017Y001305D01*
X002165Y001195D02*
X002220Y001140D01*
X002330Y001140D01*
X002385Y001195D01*
X002533Y001195D02*
X002588Y001140D01*
X002698Y001140D01*
X002753Y001195D01*
X002753Y001415D01*
X002698Y001470D01*
X002588Y001470D01*
X002533Y001415D01*
X002533Y001195D01*
X002643Y000970D02*
X002753Y000860D01*
X002753Y000640D01*
X002902Y000640D02*
X002902Y000860D01*
X003012Y000970D01*
X003122Y000860D01*
X003122Y000640D01*
X003122Y000805D02*
X002902Y000805D01*
X002753Y000805D02*
X002533Y000805D01*
X002533Y000860D02*
X002643Y000970D01*
X002533Y000860D02*
X002533Y000640D01*
X002385Y000805D02*
X002165Y000805D01*
X002017Y000695D02*
X002017Y000915D01*
X001962Y000970D01*
X001797Y000970D01*
X001797Y000640D01*
X001962Y000640D01*
X002017Y000695D01*
X002165Y001195D02*
X002165Y001415D01*
X002220Y001470D01*
X002330Y001470D01*
X002385Y001415D01*
X002902Y001470D02*
X002902Y001140D01*
X003122Y001140D02*
X003122Y001470D01*
X003270Y001470D02*
X003490Y001140D01*
X003490Y001470D01*
X003638Y001470D02*
X003638Y001140D01*
X003858Y001140D01*
X003748Y001305D02*
X003638Y001305D01*
X003638Y001470D02*
X003858Y001470D01*
X004007Y001415D02*
X004007Y001195D01*
X004062Y001140D01*
X004172Y001140D01*
X004227Y001195D01*
X004227Y000970D02*
X004117Y000915D01*
X004007Y000805D01*
X004172Y000805D01*
X004227Y000750D01*
X004227Y000695D01*
X004172Y000640D01*
X004062Y000640D01*
X004007Y000695D01*
X004007Y000805D01*
X003858Y000750D02*
X003858Y000695D01*
X003803Y000640D01*
X003693Y000640D01*
X003638Y000695D01*
X003748Y000805D02*
X003803Y000805D01*
X003858Y000750D01*
X003803Y000805D02*
X003858Y000860D01*
X003858Y000915D01*
X003803Y000970D01*
X003693Y000970D01*
X003638Y000915D01*
X003490Y000805D02*
X003270Y000805D01*
X003270Y001140D02*
X003270Y001470D01*
X003122Y001140D02*
X002902Y001470D01*
X004007Y001415D02*
X004062Y001470D01*
X004172Y001470D01*
X004227Y001415D01*
X004375Y001470D02*
X004595Y001470D01*
X004485Y001470D02*
X004485Y001140D01*
X004420Y003140D02*
X004200Y003140D01*
X004310Y003140D02*
X004310Y003470D01*
X004200Y003360D01*
X004052Y003305D02*
X003832Y003305D01*
X003683Y003360D02*
X003683Y003415D01*
X003628Y003470D01*
X003518Y003470D01*
X003463Y003415D01*
X003315Y003415D02*
X003315Y003195D01*
X003260Y003140D01*
X003150Y003140D01*
X003095Y003195D01*
X003315Y003415D01*
X003260Y003470D01*
X003150Y003470D01*
X003095Y003415D01*
X003095Y003195D01*
X002947Y003195D02*
X002892Y003140D01*
X002782Y003140D01*
X002727Y003195D01*
X002782Y003305D02*
X002892Y003305D01*
X002947Y003250D01*
X002947Y003195D01*
X002782Y003305D02*
X002727Y003360D01*
X002727Y003415D01*
X002782Y003470D01*
X002892Y003470D01*
X002947Y003415D01*
X002578Y003305D02*
X002358Y003305D01*
X002210Y003195D02*
X002155Y003140D01*
X002045Y003140D01*
X001990Y003195D01*
X002210Y003415D01*
X002210Y003195D01*
X001990Y003195D02*
X001990Y003415D01*
X002045Y003470D01*
X002155Y003470D01*
X002210Y003415D01*
X001842Y003415D02*
X001787Y003470D01*
X001677Y003470D01*
X001622Y003415D01*
X001474Y003415D02*
X001418Y003470D01*
X001308Y003470D01*
X001253Y003415D01*
X001474Y003415D02*
X001474Y003360D01*
X001253Y003140D01*
X001474Y003140D01*
X001622Y003140D02*
X001842Y003360D01*
X001842Y003415D01*
X001842Y003140D02*
X001622Y003140D01*
X001280Y001470D02*
X001280Y001140D01*
X001280Y001305D02*
X001060Y001305D01*
X001060Y001140D02*
X001060Y001470D01*
X003463Y003140D02*
X003683Y003360D01*
X003683Y003140D02*
X003463Y003140D01*
X004568Y003195D02*
X004788Y003415D01*
X004788Y003195D01*
X004733Y003140D01*
X004623Y003140D01*
X004568Y003195D01*
X004568Y003415D01*
X004623Y003470D01*
X004733Y003470D01*
X004788Y003415D01*
X004936Y003415D02*
X004936Y003195D01*
X005157Y003415D01*
X005157Y003195D01*
X005102Y003140D01*
X004992Y003140D01*
X004936Y003195D01*
X004936Y003415D02*
X004992Y003470D01*
X005102Y003470D01*
X005157Y003415D01*
X005224Y005890D02*
X005224Y006220D01*
X005372Y006220D02*
X005537Y006220D01*
X005592Y006165D01*
X005592Y005945D01*
X005537Y005890D01*
X005372Y005890D01*
X005372Y006220D01*
X005224Y005890D02*
X005003Y006220D01*
X005003Y005890D01*
X004855Y005945D02*
X004855Y006055D01*
X004745Y006055D01*
X004855Y006165D02*
X004800Y006220D01*
X004690Y006220D01*
X004635Y006165D01*
X004635Y005945D01*
X004690Y005890D01*
X004800Y005890D01*
X004855Y005945D01*
X004292Y006220D02*
X004072Y006220D01*
X004072Y005890D01*
X003924Y005890D02*
X003703Y005890D01*
X003703Y006220D01*
X003924Y006220D01*
X003813Y006055D02*
X003703Y006055D01*
X003555Y006055D02*
X003500Y006000D01*
X003335Y006000D01*
X003445Y006000D02*
X003555Y005890D01*
X003555Y006055D02*
X003555Y006165D01*
X003500Y006220D01*
X003335Y006220D01*
X003335Y005890D01*
X002699Y005945D02*
X002643Y005890D01*
X002533Y005890D01*
X002478Y005945D01*
X002699Y006165D01*
X002699Y005945D01*
X002699Y006165D02*
X002643Y006220D01*
X002533Y006220D01*
X002478Y006165D01*
X002478Y005945D01*
X002330Y005890D02*
X002330Y006110D01*
X002220Y006220D01*
X002110Y006110D01*
X002110Y005890D01*
X002110Y006055D02*
X002330Y006055D01*
X001424Y005890D02*
X001203Y005890D01*
X001313Y005890D02*
X001313Y006220D01*
X001203Y006110D01*
X001055Y006110D02*
X001055Y005890D01*
X001055Y006055D02*
X000835Y006055D01*
X000835Y006110D02*
X000945Y006220D01*
X001055Y006110D01*
X000835Y006110D02*
X000835Y005890D01*
X004072Y006055D02*
X004182Y006055D01*
D11*
X004200Y001955D03*
X003950Y001955D03*
X003700Y001955D03*
X003450Y001955D03*
X003200Y001955D03*
X002950Y001955D03*
X002700Y001955D03*
X002450Y001955D03*
X002200Y001955D03*
X001950Y001955D03*
X001700Y001955D03*
X001700Y001955D03*
X001450Y001955D03*
X001200Y001955D03*
X000950Y001955D03*
X004450Y001955D03*
X004700Y001955D03*
X004950Y001955D03*
X005200Y001955D03*
D12*
X005700Y003605D02*
X004500Y003605D01*
X004500Y005805D01*
X005700Y005805D01*
X005700Y003605D01*
X005675Y003805D02*
X005675Y006305D01*
X003175Y006305D01*
X003175Y003805D01*
X005675Y003805D01*
X004350Y003605D02*
X004350Y005805D01*
X003150Y005805D01*
X003150Y003605D01*
X004350Y003605D01*
X003000Y003605D02*
X003000Y005805D01*
X001800Y005805D01*
X001800Y003605D01*
X003000Y003605D01*
X002975Y003805D02*
X002975Y006305D01*
X000475Y006305D01*
X000475Y003805D01*
X002975Y003805D01*
X001650Y003605D02*
X001650Y005805D01*
X000450Y005805D01*
X000450Y003605D01*
X001650Y003605D01*
M02*
